<svg width="1200" height="630" viewBox="0 0 1200 630" fill="none" xmlns="http://www.w3.org/2000/svg">
  <defs>
    <linearGradient id="bg" x1="0" y1="0" x2="1200" y2="630" gradientUnits="userSpaceOnUse">
      <stop stop-color="#0A1432"/>
      <stop offset="1" stop-color="#17295D"/>
    </linearGradient>
    <linearGradient id="g1" x1="0" y1="0" x2="1" y2="1"><stop stop-color="#143CFF"/><stop offset="1" stop-color="#6E1EE6"/></linearGradient>
    <linearGradient id="g2" x1="0" y1="0" x2="1" y2="1"><stop stop-color="#C800D2"/><stop offset="1" stop-color="#FFAF3C"/></linearGradient>
    <linearGradient id="g3" x1="0" y1="0" x2="1" y2="1"><stop stop-color="#00FFFF"/><stop offset="1" stop-color="#00E1B4"/></linearGradient>
  </defs>
  <rect width="1200" height="630" fill="url(#bg)"/>
  <g transform="translate(120 160) scale(2.4)">
    <path d="M25 5.5L45.8 17.5V41.5L25 53.5L4.2 41.5V17.5L25 5.5Z" fill="url(#g1)" fill-opacity="0.92"/>
    <path d="M68 5.5L88.8 17.5V41.5L68 53.5L47.2 41.5V17.5L68 5.5Z" fill="url(#g2)" fill-opacity="0.9"/>
    <path d="M46.5 30.5L67.3 42.5V66.5L46.5 78.5L25.7 66.5V42.5L46.5 30.5Z" fill="url(#g3)" fill-opacity="0.88"/>
  </g>
  <text x="120" y="420" fill="#FFFFFF" font-family="Century Gothic, sans-serif" font-size="64" font-weight="700">BTech</text>
  <text x="120" y="470" fill="rgba(255,255,255,0.8)" font-family="Century Gothic, sans-serif" font-size="24" letter-spacing="0.2em">CONSULTORIA</text>
  <text x="120" y="540" fill="rgba(255,255,255,0.72)" font-family="Century Gothic, sans-serif" font-size="28">Cloud, IA e automa??o para empresas</text>
</svg>
